<?xml version="1.0" encoding="UTF-8"?>
<svg xmlns="http://www.w3.org/2000/svg" xmlns:xlink="http://www.w3.org/1999/xlink" width="64px" height="64px" viewBox="0 0 64 64" version="1.1">
<g id="surface1">
<path style=" stroke:none;fill-rule:evenodd;fill:rgb(98.039216%,52.941179%,3.921569%);fill-opacity:1;" d="M 0 0 L 47.199219 0 C 56.410156 0 63.917969 7.507812 63.917969 16.71875 L 63.917969 63.890625 L 16.71875 63.890625 C 7.507812 63.890625 0 56.382812 0 47.171875 Z M 9.097656 9.097656 L 47.199219 9.097656 C 51.390625 9.097656 54.820312 12.527344 54.820312 16.71875 L 54.820312 54.789062 L 16.71875 54.789062 C 12.527344 54.789062 9.097656 51.359375 9.097656 47.167969 Z M 9.097656 9.097656 "/>
<path style=" stroke:none;fill-rule:evenodd;fill:rgb(98.039216%,52.941179%,3.921569%);fill-opacity:1;" d="M 31.960938 50.203125 C 31.960938 50.203125 45.59375 38.386719 38.414062 22.324219 L 26.464844 43.097656 C 26.828125 43.761719 27.203125 44.378906 27.582031 44.957031 C 30.53125 39.851562 33.480469 34.746094 36.421875 29.632812 L 38.011719 30.875 L 37.882812 31.097656 L 28.847656 46.746094 C 29.273438 47.3125 29.6875 47.8125 30.0625 48.242188 C 31.988281 44.90625 33.914062 41.566406 35.835938 38.222656 L 37.429688 39.464844 L 37.300781 39.6875 L 31.488281 49.757812 C 31.785156 50.042969 31.957031 50.195312 31.957031 50.195312 Z M 37.347656 20.1875 C 37.007812 19.570312 36.632812 18.945312 36.230469 18.316406 C 33.316406 23.363281 30.40625 28.40625 27.496094 33.453125 L 25.90625 32.210938 L 26.035156 31.988281 L 34.976562 16.507812 C 34.597656 16 34.203125 15.484375 33.78125 14.96875 C 31.878906 18.265625 29.980469 21.5625 28.082031 24.859375 L 26.488281 23.621094 L 26.617188 23.398438 L 32.398438 13.375 C 32.253906 13.210938 32.109375 13.050781 31.957031 12.886719 C 21.519531 24.089844 22.40625 34.117188 25.402344 40.953125 C 29.386719 34.03125 33.367188 27.113281 37.347656 20.191406 Z M 37.347656 20.1875 "/>
</g>
</svg>
