<?xml version="1.0" encoding="UTF-8"?>
<!DOCTYPE svg PUBLIC "-//W3C//DTD SVG 1.1//EN" "http://www.w3.org/Graphics/SVG/1.1/DTD/svg11.dtd">
<!-- Creator: CorelDRAW -->
<svg xmlns="http://www.w3.org/2000/svg" xml:space="preserve" width="138.952mm" height="46.7687mm" version="1.1" style="shape-rendering:geometricPrecision; text-rendering:geometricPrecision; image-rendering:optimizeQuality; fill-rule:evenodd; clip-rule:evenodd"
viewBox="0 0 2000.61 673.37"
 xmlns:xlink="http://www.w3.org/1999/xlink"
 xmlns:xodm="http://www.corel.com/coreldraw/odm/2003">
 <defs>
  <style type="text/css">
   <![CDATA[
    .str0 {stroke:white;stroke-width:4.83;stroke-miterlimit:22.9256}
    .fil2 {fill:none}
    .fil0 {fill:#FA870A}
    .fil3 {fill:white}
    .fil1 {fill:white;fill-rule:nonzero}
   ]]>
  </style>
 </defs>
 <g id="Camada_x0020_1">
  <metadata id="CorelCorpID_0Corel-Layer"/>
  <g id="_2068963053040">
   <path class="fil0" d="M-0 0l497.46 0c97.12,0 176.23,79.11 176.23,176.23l0 497.14 -497.46 0c-97.11,0 -176.23,-79.11 -176.23,-176.23l0 -497.14zm95.9 95.9l401.56 0c44.18,0 80.33,36.15 80.33,80.33l0 401.24 -401.56 0c-44.18,0 -80.33,-36.14 -80.33,-80.33l0 -401.24z"/>
   <path class="fil0" d="M336.84 529.11c0,0 143.66,-124.54 68.04,-293.81l-125.93 218.97c3.83,6.96 7.79,13.51 11.76,19.6 31.08,-53.82 62.15,-107.66 93.16,-161.51l16.78 13.08 -1.36 2.36 -95.25 164.95c4.52,5.93 8.87,11.22 12.84,15.77 20.3,-35.19 40.58,-70.39 60.85,-105.59l16.78 13.08 -1.36 2.36 -61.23 106.13c3.11,3.03 4.94,4.61 4.94,4.61zm56.79 -316.32c-3.6,-6.52 -7.5,-13.09 -11.79,-19.72 -30.7,53.16 -61.38,106.33 -92.02,159.52l-16.78 -13.08 1.36 -2.36 94.22 -163.16c-3.98,-5.37 -8.13,-10.77 -12.59,-16.2 -20.03,34.74 -40.05,69.49 -60.07,104.24l-16.78 -13.08 1.36 -2.36 60.95 -105.63c-1.55,-1.71 -3.05,-3.42 -4.65,-5.14 -110.01,118.06 -100.66,223.75 -69.08,295.77 41.97,-72.92 83.94,-145.85 125.87,-218.79z"/>
   <g>
    <path class="fil1" d="M881.66 529.41c-13.77,0 -26.39,-3.45 -37.86,-10.33 -11.47,-6.88 -20.65,-16.06 -27.53,-27.53 -6.88,-11.47 -10.33,-24.09 -10.33,-37.86l0 -211.52c0,-13.77 3.45,-26.39 10.33,-37.86 6.88,-11.47 16.06,-20.65 27.53,-27.53 11.47,-6.88 24.09,-10.33 37.86,-10.33l217.78 0c14.18,0 27.01,3.45 38.48,10.33 11.47,6.88 20.66,16.06 27.54,27.53 6.88,11.47 10.32,24.09 10.32,37.86l0 211.52c0,13.77 -3.44,26.39 -10.32,37.86 -6.88,11.47 -16.07,20.65 -27.54,27.53 -11.47,6.88 -24.3,10.33 -38.48,10.33l-217.78 0zm0 -51.31l217.78 0c6.67,0 12.41,-2.4 17.21,-7.2 4.8,-4.8 7.2,-10.54 7.2,-17.21l0 -211.52c0,-6.67 -2.4,-12.41 -7.2,-17.21 -4.8,-4.8 -10.53,-7.2 -17.21,-7.2l-217.78 0c-6.67,0 -12.41,2.4 -17.21,7.2 -4.8,4.8 -7.2,10.54 -7.2,17.21l0 211.52c0,6.67 2.4,12.41 7.2,17.21 4.8,4.8 10.53,7.2 17.21,7.2zm421.16 51.31c-13.77,0 -26.39,-3.45 -37.86,-10.33 -11.47,-6.88 -20.65,-16.06 -27.53,-27.53 -6.88,-11.47 -10.33,-24.09 -10.33,-37.86l0 -287.31 51.31 0 0 287.31c0,6.66 2.4,12.41 7.2,17.21 4.8,4.8 10.54,7.2 17.21,7.2l61.33 0 0 51.31 -61.33 0zm113.27 0l0 0 0 -362.96 51.31 0 0 362.96 -51.31 0zm205.26 0c-13.77,0 -26.39,-3.45 -37.86,-10.33 -11.47,-6.88 -20.65,-16.06 -27.53,-27.53 -6.88,-11.47 -10.33,-24.09 -10.33,-37.86l0 -211.52c0,-13.77 3.44,-26.39 10.33,-37.86 6.88,-11.47 16.06,-20.65 27.53,-27.53 11.47,-6.88 24.09,-10.33 37.86,-10.33l217.78 0c14.18,0 27.01,3.45 38.48,10.33 11.47,6.88 20.66,16.06 27.54,27.53 6.88,11.47 10.32,24.09 10.32,37.86l0 131.42 -318.52 0 0 80.1c0,6.67 2.4,12.41 7.2,17.21 4.8,4.8 10.53,7.2 17.2,7.2l294.12 0 0 51.31 -294.12 0zm-24.4 -207.14l266.58 0 0 -80.1c0,-6.67 -2.4,-12.41 -7.2,-17.21 -4.8,-4.8 -10.53,-7.2 -17.21,-7.2l-217.78 0c-6.67,0 -12.41,2.4 -17.2,7.2 -4.8,4.8 -7.2,10.54 -7.2,17.21l0 80.1z"/>
    <path class="fil2 str0" d="M1964.92 143.96c18.37,0 33.27,14.89 33.27,33.27 0,18.38 -14.9,33.27 -33.27,33.27 -18.38,0 -33.27,-14.89 -33.27,-33.27 0,-18.38 14.9,-33.27 33.27,-33.27z"/>
    <path class="fil3" d="M1953.18 193.51l0 -32.27 14.3 0c2.88,0 5.06,0.29 6.56,0.87 1.49,0.58 2.69,1.6 3.58,3.06 0.89,1.47 1.34,3.09 1.34,4.86 0,2.29 -0.74,4.22 -2.22,5.79 -1.48,1.57 -3.77,2.56 -6.86,2.99 1.14,0.54 1.99,1.08 2.58,1.61 1.25,1.14 2.43,2.58 3.53,4.3l5.58 8.79 -5.33 0 -4.27 -6.72c-1.24,-1.94 -2.27,-3.42 -3.07,-4.45 -0.81,-1.03 -1.53,-1.74 -2.17,-2.16 -0.63,-0.4 -1.28,-0.69 -1.95,-0.86 -0.48,-0.1 -1.27,-0.15 -2.37,-0.15l-4.94 0 0 14.33 -4.28 0zm4.28 -18.03l9.17 0c1.95,0 3.47,-0.2 4.57,-0.61 1.1,-0.4 1.93,-1.05 2.49,-1.94 0.57,-0.89 0.86,-1.85 0.86,-2.89 0,-1.52 -0.55,-2.79 -1.65,-3.77 -1.1,-0.98 -2.85,-1.47 -5.23,-1.47l-10.2 0 0 10.68z"/>
   </g>
  </g>
 </g>
</svg>
